G04 #@! TF.GenerationSoftware,KiCad,Pcbnew,6.0.1*
G04 #@! TF.CreationDate,2022-02-12T22:05:26-08:00*
G04 #@! TF.ProjectId,PMOD-PSRAM,504d4f44-2d50-4535-9241-4d2e6b696361,rev?*
G04 #@! TF.SameCoordinates,Original*
G04 #@! TF.FileFunction,Copper,L4,Bot*
G04 #@! TF.FilePolarity,Positive*
%FSLAX46Y46*%
G04 Gerber Fmt 4.6, Leading zero omitted, Abs format (unit mm)*
G04 Created by KiCad (PCBNEW 6.0.1) date 2022-02-12 22:05:26*
%MOMM*%
%LPD*%
G01*
G04 APERTURE LIST*
G04 #@! TA.AperFunction,ComponentPad*
%ADD10R,1.700000X1.700000*%
G04 #@! TD*
G04 #@! TA.AperFunction,ComponentPad*
%ADD11O,1.700000X1.700000*%
G04 #@! TD*
G04 #@! TA.AperFunction,ViaPad*
%ADD12C,0.600000*%
G04 #@! TD*
G04 #@! TA.AperFunction,Conductor*
%ADD13C,0.250000*%
G04 #@! TD*
G04 APERTURE END LIST*
D10*
X144050000Y-92050000D03*
D11*
X141510000Y-92050000D03*
X144050000Y-94590000D03*
X141510000Y-94590000D03*
X144050000Y-97130000D03*
X141510000Y-97130000D03*
X144050000Y-99670000D03*
X141510000Y-99670000D03*
X144050000Y-102210000D03*
X141510000Y-102210000D03*
X144050000Y-104750000D03*
X141510000Y-104750000D03*
D12*
X155730000Y-100945000D03*
X155730000Y-92045000D03*
X156825000Y-94950000D03*
X156825000Y-103860000D03*
X150675000Y-104750000D03*
X150673500Y-95850000D03*
X147025000Y-93300000D03*
X146975000Y-102200000D03*
X152675000Y-104760000D03*
X152675000Y-98400000D03*
X152675000Y-95850000D03*
X147625000Y-94600000D03*
X147625000Y-103500000D03*
X151975000Y-99700000D03*
X151975000Y-103450000D03*
X151975000Y-94600000D03*
X151225000Y-97100000D03*
X151225000Y-102210000D03*
X151225000Y-93300000D03*
D13*
X146975000Y-93350000D02*
X147025000Y-93300000D01*
X146975000Y-102200000D02*
X146975000Y-93350000D01*
X152675000Y-98400000D02*
X152675000Y-104760000D01*
X152675000Y-98300000D02*
X152675000Y-98400000D01*
X152675000Y-95850000D02*
X152675000Y-98300000D01*
X147625000Y-103500000D02*
X147625000Y-94600000D01*
X151975000Y-99700000D02*
X151975000Y-94600000D01*
X151975000Y-103460000D02*
X151975000Y-99700000D01*
X151225000Y-97100000D02*
X151225000Y-102210000D01*
X151225000Y-93300000D02*
X151225000Y-97100000D01*
M02*
