M48
; DRILL file {KiCad 6.0.1} date Sat 12 Feb 2022 10:05:59 PM PST
; FORMAT={-:-/ absolute / metric / decimal}
; #@! TF.CreationDate,2022-02-12T22:05:59-08:00
; #@! TF.GenerationSoftware,Kicad,Pcbnew,6.0.1
; #@! TF.FileFunction,Plated,1,4,PTH
FMAT,2
METRIC
; #@! TA.AperFunction,Plated,PTH,ViaDrill
T1C0.300
; #@! TA.AperFunction,Plated,PTH,ComponentDrill
T2C1.000
%
G90
G05
T1
X146.975Y-102.2
X147.025Y-93.3
X147.625Y-94.6
X147.625Y-103.5
X150.673Y-95.85
X150.675Y-104.75
X151.225Y-93.3
X151.225Y-97.1
X151.225Y-102.21
X151.975Y-94.6
X151.975Y-99.7
X151.975Y-103.45
X152.675Y-95.85
X152.675Y-98.4
X152.675Y-104.76
X155.73Y-92.045
X155.73Y-100.945
X156.825Y-94.95
X156.825Y-103.86
T2
X141.51Y-92.05
X141.51Y-94.59
X141.51Y-97.13
X141.51Y-99.67
X141.51Y-102.21
X141.51Y-104.75
X144.05Y-92.05
X144.05Y-94.59
X144.05Y-97.13
X144.05Y-99.67
X144.05Y-102.21
X144.05Y-104.75
T0
M30
