%FSLAX45Y45*%
G04 Gerber Fmt 4.5, Leading zero omitted, Abs format (unit mm)*
G04 Created by KiCad (PCBNEW 6.0.1) date 2022-02-12 22:06:03*
%MOMM*%
%LPD*%
G01*
G04 APERTURE LIST*
%TA.AperFunction,Profile*%
%ADD10C,0.100000*%
%TD*%
%ADD11C,0.200000*%
%ADD12C,0.030000*%
%ADD13C,0.100000*%
G04 APERTURE END LIST*
D10*
X15812500Y-9200000D02*
X15812500Y-9405000D01*
X14172500Y-9005000D02*
X15812500Y-9005000D01*
X13952500Y-9005000D02*
X14172500Y-9005000D01*
X13952500Y-9240000D02*
X13952500Y-10670000D01*
X13952500Y-10675000D02*
X14022500Y-10675000D01*
X15627500Y-10675000D02*
X15717500Y-10675000D01*
X15812500Y-9005000D02*
X15812500Y-9200000D01*
X14022500Y-10675000D02*
X14637500Y-10675000D01*
X15812500Y-10070000D02*
X15812500Y-10335000D01*
X13952500Y-10670000D02*
X13952500Y-10675000D01*
X14637500Y-10675000D02*
X15627500Y-10675000D01*
X15812500Y-9405000D02*
X15812500Y-9805000D01*
X15812500Y-9805000D02*
X15812500Y-10070000D01*
X15812500Y-10675000D02*
X15717500Y-10675000D01*
X15812500Y-10335000D02*
X15812500Y-10675000D01*
X13952500Y-9005000D02*
X13952500Y-9240000D01*
D11*
D12*
X14682500Y-10205000D02*
X14712500Y-10235000D01*
X14712500Y-10205000D02*
X14682500Y-10235000D01*
X14687500Y-9315000D02*
X14717500Y-9345000D01*
X14717500Y-9315000D02*
X14687500Y-9345000D01*
X14747500Y-9445000D02*
X14777500Y-9475000D01*
X14777500Y-9445000D02*
X14747500Y-9475000D01*
X14747500Y-10335000D02*
X14777500Y-10365000D01*
X14777500Y-10335000D02*
X14747500Y-10365000D01*
X15052350Y-9570000D02*
X15082350Y-9600000D01*
X15082350Y-9570000D02*
X15052350Y-9600000D01*
X15052500Y-10460000D02*
X15082500Y-10490000D01*
X15082500Y-10460000D02*
X15052500Y-10490000D01*
X15107500Y-9315000D02*
X15137500Y-9345000D01*
X15137500Y-9315000D02*
X15107500Y-9345000D01*
X15107500Y-9695000D02*
X15137500Y-9725000D01*
X15137500Y-9695000D02*
X15107500Y-9725000D01*
X15107500Y-10206000D02*
X15137500Y-10236000D01*
X15137500Y-10206000D02*
X15107500Y-10236000D01*
X15182500Y-9445000D02*
X15212500Y-9475000D01*
X15212500Y-9445000D02*
X15182500Y-9475000D01*
X15182500Y-9955000D02*
X15212500Y-9985000D01*
X15212500Y-9955000D02*
X15182500Y-9985000D01*
X15182500Y-10330000D02*
X15212500Y-10360000D01*
X15212500Y-10330000D02*
X15182500Y-10360000D01*
X15252500Y-9570000D02*
X15282500Y-9600000D01*
X15282500Y-9570000D02*
X15252500Y-9600000D01*
X15252500Y-9825000D02*
X15282500Y-9855000D01*
X15282500Y-9825000D02*
X15252500Y-9855000D01*
X15252500Y-10461000D02*
X15282500Y-10491000D01*
X15282500Y-10461000D02*
X15252500Y-10491000D01*
X15558000Y-9189500D02*
X15588000Y-9219500D01*
X15588000Y-9189500D02*
X15558000Y-9219500D01*
X15558000Y-10079500D02*
X15588000Y-10109500D01*
X15588000Y-10079500D02*
X15558000Y-10109500D01*
X15667500Y-9480000D02*
X15697500Y-9510000D01*
X15697500Y-9480000D02*
X15667500Y-9510000D01*
X15667500Y-10371000D02*
X15697500Y-10401000D01*
X15697500Y-10371000D02*
X15667500Y-10401000D01*
D13*
X14201000Y-9205000D02*
G75*
G03*
X14201000Y-9205000I-50000J0D01*
G01*
X14201000Y-9459000D02*
G75*
G03*
X14201000Y-9459000I-50000J0D01*
G01*
X14201000Y-9713000D02*
G75*
G03*
X14201000Y-9713000I-50000J0D01*
G01*
X14201000Y-9967000D02*
G75*
G03*
X14201000Y-9967000I-50000J0D01*
G01*
X14201000Y-10221000D02*
G75*
G03*
X14201000Y-10221000I-50000J0D01*
G01*
X14201000Y-10475000D02*
G75*
G03*
X14201000Y-10475000I-50000J0D01*
G01*
X14455000Y-9205000D02*
G75*
G03*
X14455000Y-9205000I-50000J0D01*
G01*
X14455000Y-9459000D02*
G75*
G03*
X14455000Y-9459000I-50000J0D01*
G01*
X14455000Y-9713000D02*
G75*
G03*
X14455000Y-9713000I-50000J0D01*
G01*
X14455000Y-9967000D02*
G75*
G03*
X14455000Y-9967000I-50000J0D01*
G01*
X14455000Y-10221000D02*
G75*
G03*
X14455000Y-10221000I-50000J0D01*
G01*
X14455000Y-10475000D02*
G75*
G03*
X14455000Y-10475000I-50000J0D01*
G01*
D11*
X14205119Y-10990476D02*
X14205119Y-10790476D01*
X14252738Y-10790476D01*
X14281309Y-10800000D01*
X14300357Y-10819048D01*
X14309881Y-10838095D01*
X14319405Y-10876190D01*
X14319405Y-10904762D01*
X14309881Y-10942857D01*
X14300357Y-10961905D01*
X14281309Y-10980952D01*
X14252738Y-10990476D01*
X14205119Y-10990476D01*
X14405119Y-10990476D02*
X14405119Y-10857143D01*
X14405119Y-10895238D02*
X14414643Y-10876190D01*
X14424167Y-10866667D01*
X14443214Y-10857143D01*
X14462262Y-10857143D01*
X14528928Y-10990476D02*
X14528928Y-10857143D01*
X14528928Y-10790476D02*
X14519405Y-10800000D01*
X14528928Y-10809524D01*
X14538452Y-10800000D01*
X14528928Y-10790476D01*
X14528928Y-10809524D01*
X14652738Y-10990476D02*
X14633690Y-10980952D01*
X14624167Y-10961905D01*
X14624167Y-10790476D01*
X14757500Y-10990476D02*
X14738452Y-10980952D01*
X14728928Y-10961905D01*
X14728928Y-10790476D01*
X14986071Y-10990476D02*
X14986071Y-10790476D01*
X15052738Y-10933333D01*
X15119405Y-10790476D01*
X15119405Y-10990476D01*
X15300357Y-10990476D02*
X15300357Y-10885714D01*
X15290833Y-10866667D01*
X15271786Y-10857143D01*
X15233690Y-10857143D01*
X15214643Y-10866667D01*
X15300357Y-10980952D02*
X15281309Y-10990476D01*
X15233690Y-10990476D01*
X15214643Y-10980952D01*
X15205119Y-10961905D01*
X15205119Y-10942857D01*
X15214643Y-10923810D01*
X15233690Y-10914286D01*
X15281309Y-10914286D01*
X15300357Y-10904762D01*
X15395595Y-10857143D02*
X15395595Y-11057143D01*
X15395595Y-10866667D02*
X15414643Y-10857143D01*
X15452738Y-10857143D01*
X15471786Y-10866667D01*
X15481309Y-10876190D01*
X15490833Y-10895238D01*
X15490833Y-10952381D01*
X15481309Y-10971429D01*
X15471786Y-10980952D01*
X15452738Y-10990476D01*
X15414643Y-10990476D01*
X15395595Y-10980952D01*
X15576548Y-10971429D02*
X15586071Y-10980952D01*
X15576548Y-10990476D01*
X15567024Y-10980952D01*
X15576548Y-10971429D01*
X15576548Y-10990476D01*
X15576548Y-10866667D02*
X15586071Y-10876190D01*
X15576548Y-10885714D01*
X15567024Y-10876190D01*
X15576548Y-10866667D01*
X15576548Y-10885714D01*
D12*
X13917500Y-11305000D02*
X13947500Y-11335000D01*
X13947500Y-11305000D02*
X13917500Y-11335000D01*
D11*
X14243214Y-11210476D02*
X14262262Y-11210476D01*
X14281309Y-11220000D01*
X14290833Y-11229524D01*
X14300357Y-11248571D01*
X14309881Y-11286667D01*
X14309881Y-11334286D01*
X14300357Y-11372381D01*
X14290833Y-11391428D01*
X14281309Y-11400952D01*
X14262262Y-11410476D01*
X14243214Y-11410476D01*
X14224167Y-11400952D01*
X14214643Y-11391428D01*
X14205119Y-11372381D01*
X14195595Y-11334286D01*
X14195595Y-11286667D01*
X14205119Y-11248571D01*
X14214643Y-11229524D01*
X14224167Y-11220000D01*
X14243214Y-11210476D01*
X14395595Y-11391428D02*
X14405119Y-11400952D01*
X14395595Y-11410476D01*
X14386071Y-11400952D01*
X14395595Y-11391428D01*
X14395595Y-11410476D01*
X14471786Y-11210476D02*
X14595595Y-11210476D01*
X14528928Y-11286667D01*
X14557500Y-11286667D01*
X14576548Y-11296190D01*
X14586071Y-11305714D01*
X14595595Y-11324762D01*
X14595595Y-11372381D01*
X14586071Y-11391428D01*
X14576548Y-11400952D01*
X14557500Y-11410476D01*
X14500357Y-11410476D01*
X14481309Y-11400952D01*
X14471786Y-11391428D01*
X14719405Y-11210476D02*
X14738452Y-11210476D01*
X14757500Y-11220000D01*
X14767024Y-11229524D01*
X14776548Y-11248571D01*
X14786071Y-11286667D01*
X14786071Y-11334286D01*
X14776548Y-11372381D01*
X14767024Y-11391428D01*
X14757500Y-11400952D01*
X14738452Y-11410476D01*
X14719405Y-11410476D01*
X14700357Y-11400952D01*
X14690833Y-11391428D01*
X14681309Y-11372381D01*
X14671786Y-11334286D01*
X14671786Y-11286667D01*
X14681309Y-11248571D01*
X14690833Y-11229524D01*
X14700357Y-11220000D01*
X14719405Y-11210476D01*
X14909881Y-11210476D02*
X14928928Y-11210476D01*
X14947976Y-11220000D01*
X14957500Y-11229524D01*
X14967024Y-11248571D01*
X14976548Y-11286667D01*
X14976548Y-11334286D01*
X14967024Y-11372381D01*
X14957500Y-11391428D01*
X14947976Y-11400952D01*
X14928928Y-11410476D01*
X14909881Y-11410476D01*
X14890833Y-11400952D01*
X14881309Y-11391428D01*
X14871786Y-11372381D01*
X14862262Y-11334286D01*
X14862262Y-11286667D01*
X14871786Y-11248571D01*
X14881309Y-11229524D01*
X14890833Y-11220000D01*
X14909881Y-11210476D01*
X15062262Y-11410476D02*
X15062262Y-11277143D01*
X15062262Y-11296190D02*
X15071786Y-11286667D01*
X15090833Y-11277143D01*
X15119405Y-11277143D01*
X15138452Y-11286667D01*
X15147976Y-11305714D01*
X15147976Y-11410476D01*
X15147976Y-11305714D02*
X15157500Y-11286667D01*
X15176548Y-11277143D01*
X15205119Y-11277143D01*
X15224167Y-11286667D01*
X15233690Y-11305714D01*
X15233690Y-11410476D01*
X15328928Y-11410476D02*
X15328928Y-11277143D01*
X15328928Y-11296190D02*
X15338452Y-11286667D01*
X15357500Y-11277143D01*
X15386071Y-11277143D01*
X15405119Y-11286667D01*
X15414643Y-11305714D01*
X15414643Y-11410476D01*
X15414643Y-11305714D02*
X15424167Y-11286667D01*
X15443214Y-11277143D01*
X15471786Y-11277143D01*
X15490833Y-11286667D01*
X15500357Y-11305714D01*
X15500357Y-11410476D01*
X15890833Y-11200952D02*
X15719405Y-11458095D01*
X16147976Y-11210476D02*
X16167024Y-11210476D01*
X16186071Y-11220000D01*
X16195595Y-11229524D01*
X16205119Y-11248571D01*
X16214643Y-11286667D01*
X16214643Y-11334286D01*
X16205119Y-11372381D01*
X16195595Y-11391428D01*
X16186071Y-11400952D01*
X16167024Y-11410476D01*
X16147976Y-11410476D01*
X16128928Y-11400952D01*
X16119405Y-11391428D01*
X16109881Y-11372381D01*
X16100357Y-11334286D01*
X16100357Y-11286667D01*
X16109881Y-11248571D01*
X16119405Y-11229524D01*
X16128928Y-11220000D01*
X16147976Y-11210476D01*
X16300357Y-11391428D02*
X16309881Y-11400952D01*
X16300357Y-11410476D01*
X16290833Y-11400952D01*
X16300357Y-11391428D01*
X16300357Y-11410476D01*
X16433690Y-11210476D02*
X16452738Y-11210476D01*
X16471786Y-11220000D01*
X16481309Y-11229524D01*
X16490833Y-11248571D01*
X16500357Y-11286667D01*
X16500357Y-11334286D01*
X16490833Y-11372381D01*
X16481309Y-11391428D01*
X16471786Y-11400952D01*
X16452738Y-11410476D01*
X16433690Y-11410476D01*
X16414643Y-11400952D01*
X16405119Y-11391428D01*
X16395595Y-11372381D01*
X16386071Y-11334286D01*
X16386071Y-11286667D01*
X16395595Y-11248571D01*
X16405119Y-11229524D01*
X16414643Y-11220000D01*
X16433690Y-11210476D01*
X16690833Y-11410476D02*
X16576548Y-11410476D01*
X16633690Y-11410476D02*
X16633690Y-11210476D01*
X16614643Y-11239048D01*
X16595595Y-11258095D01*
X16576548Y-11267619D01*
X16881310Y-11410476D02*
X16767024Y-11410476D01*
X16824167Y-11410476D02*
X16824167Y-11210476D01*
X16805119Y-11239048D01*
X16786071Y-11258095D01*
X16767024Y-11267619D01*
X16995595Y-11296190D02*
X16976548Y-11286667D01*
X16967024Y-11277143D01*
X16957500Y-11258095D01*
X16957500Y-11248571D01*
X16967024Y-11229524D01*
X16976548Y-11220000D01*
X16995595Y-11210476D01*
X17033690Y-11210476D01*
X17052738Y-11220000D01*
X17062262Y-11229524D01*
X17071786Y-11248571D01*
X17071786Y-11258095D01*
X17062262Y-11277143D01*
X17052738Y-11286667D01*
X17033690Y-11296190D01*
X16995595Y-11296190D01*
X16976548Y-11305714D01*
X16967024Y-11315238D01*
X16957500Y-11334286D01*
X16957500Y-11372381D01*
X16967024Y-11391428D01*
X16976548Y-11400952D01*
X16995595Y-11410476D01*
X17033690Y-11410476D01*
X17052738Y-11400952D01*
X17062262Y-11391428D01*
X17071786Y-11372381D01*
X17071786Y-11334286D01*
X17062262Y-11315238D01*
X17052738Y-11305714D01*
X17033690Y-11296190D01*
X17147976Y-11210476D02*
X17147976Y-11248571D01*
X17224167Y-11210476D02*
X17224167Y-11248571D01*
X17519405Y-11486667D02*
X17509881Y-11477143D01*
X17490833Y-11448571D01*
X17481310Y-11429524D01*
X17471786Y-11400952D01*
X17462262Y-11353333D01*
X17462262Y-11315238D01*
X17471786Y-11267619D01*
X17481310Y-11239048D01*
X17490833Y-11220000D01*
X17509881Y-11191428D01*
X17519405Y-11181905D01*
X17700357Y-11410476D02*
X17586071Y-11410476D01*
X17643214Y-11410476D02*
X17643214Y-11210476D01*
X17624167Y-11239048D01*
X17605119Y-11258095D01*
X17586071Y-11267619D01*
X17795595Y-11410476D02*
X17833690Y-11410476D01*
X17852738Y-11400952D01*
X17862262Y-11391428D01*
X17881310Y-11362857D01*
X17890833Y-11324762D01*
X17890833Y-11248571D01*
X17881310Y-11229524D01*
X17871786Y-11220000D01*
X17852738Y-11210476D01*
X17814643Y-11210476D01*
X17795595Y-11220000D01*
X17786071Y-11229524D01*
X17776548Y-11248571D01*
X17776548Y-11296190D01*
X17786071Y-11315238D01*
X17795595Y-11324762D01*
X17814643Y-11334286D01*
X17852738Y-11334286D01*
X17871786Y-11324762D01*
X17881310Y-11315238D01*
X17890833Y-11296190D01*
X18128929Y-11410476D02*
X18128929Y-11210476D01*
X18214643Y-11410476D02*
X18214643Y-11305714D01*
X18205119Y-11286667D01*
X18186071Y-11277143D01*
X18157500Y-11277143D01*
X18138452Y-11286667D01*
X18128929Y-11296190D01*
X18338452Y-11410476D02*
X18319405Y-11400952D01*
X18309881Y-11391428D01*
X18300357Y-11372381D01*
X18300357Y-11315238D01*
X18309881Y-11296190D01*
X18319405Y-11286667D01*
X18338452Y-11277143D01*
X18367024Y-11277143D01*
X18386071Y-11286667D01*
X18395595Y-11296190D01*
X18405119Y-11315238D01*
X18405119Y-11372381D01*
X18395595Y-11391428D01*
X18386071Y-11400952D01*
X18367024Y-11410476D01*
X18338452Y-11410476D01*
X18519405Y-11410476D02*
X18500357Y-11400952D01*
X18490833Y-11381905D01*
X18490833Y-11210476D01*
X18671786Y-11400952D02*
X18652738Y-11410476D01*
X18614643Y-11410476D01*
X18595595Y-11400952D01*
X18586071Y-11381905D01*
X18586071Y-11305714D01*
X18595595Y-11286667D01*
X18614643Y-11277143D01*
X18652738Y-11277143D01*
X18671786Y-11286667D01*
X18681310Y-11305714D01*
X18681310Y-11324762D01*
X18586071Y-11343809D01*
X18757500Y-11400952D02*
X18776548Y-11410476D01*
X18814643Y-11410476D01*
X18833690Y-11400952D01*
X18843214Y-11381905D01*
X18843214Y-11372381D01*
X18833690Y-11353333D01*
X18814643Y-11343809D01*
X18786071Y-11343809D01*
X18767024Y-11334286D01*
X18757500Y-11315238D01*
X18757500Y-11305714D01*
X18767024Y-11286667D01*
X18786071Y-11277143D01*
X18814643Y-11277143D01*
X18833690Y-11286667D01*
X18909881Y-11486667D02*
X18919405Y-11477143D01*
X18938452Y-11448571D01*
X18947976Y-11429524D01*
X18957500Y-11400952D01*
X18967024Y-11353333D01*
X18967024Y-11315238D01*
X18957500Y-11267619D01*
X18947976Y-11239048D01*
X18938452Y-11220000D01*
X18919405Y-11191428D01*
X18909881Y-11181905D01*
D13*
X13947500Y-11584000D02*
G75*
G03*
X13947500Y-11584000I-50000J0D01*
G01*
D11*
X14309881Y-11674476D02*
X14195595Y-11674476D01*
X14252738Y-11674476D02*
X14252738Y-11474476D01*
X14233690Y-11503048D01*
X14214643Y-11522095D01*
X14195595Y-11531619D01*
X14395595Y-11655428D02*
X14405119Y-11664952D01*
X14395595Y-11674476D01*
X14386071Y-11664952D01*
X14395595Y-11655428D01*
X14395595Y-11674476D01*
X14528928Y-11474476D02*
X14547976Y-11474476D01*
X14567024Y-11484000D01*
X14576548Y-11493524D01*
X14586071Y-11512571D01*
X14595595Y-11550667D01*
X14595595Y-11598286D01*
X14586071Y-11636381D01*
X14576548Y-11655428D01*
X14567024Y-11664952D01*
X14547976Y-11674476D01*
X14528928Y-11674476D01*
X14509881Y-11664952D01*
X14500357Y-11655428D01*
X14490833Y-11636381D01*
X14481309Y-11598286D01*
X14481309Y-11550667D01*
X14490833Y-11512571D01*
X14500357Y-11493524D01*
X14509881Y-11484000D01*
X14528928Y-11474476D01*
X14719405Y-11474476D02*
X14738452Y-11474476D01*
X14757500Y-11484000D01*
X14767024Y-11493524D01*
X14776548Y-11512571D01*
X14786071Y-11550667D01*
X14786071Y-11598286D01*
X14776548Y-11636381D01*
X14767024Y-11655428D01*
X14757500Y-11664952D01*
X14738452Y-11674476D01*
X14719405Y-11674476D01*
X14700357Y-11664952D01*
X14690833Y-11655428D01*
X14681309Y-11636381D01*
X14671786Y-11598286D01*
X14671786Y-11550667D01*
X14681309Y-11512571D01*
X14690833Y-11493524D01*
X14700357Y-11484000D01*
X14719405Y-11474476D01*
X14909881Y-11474476D02*
X14928928Y-11474476D01*
X14947976Y-11484000D01*
X14957500Y-11493524D01*
X14967024Y-11512571D01*
X14976548Y-11550667D01*
X14976548Y-11598286D01*
X14967024Y-11636381D01*
X14957500Y-11655428D01*
X14947976Y-11664952D01*
X14928928Y-11674476D01*
X14909881Y-11674476D01*
X14890833Y-11664952D01*
X14881309Y-11655428D01*
X14871786Y-11636381D01*
X14862262Y-11598286D01*
X14862262Y-11550667D01*
X14871786Y-11512571D01*
X14881309Y-11493524D01*
X14890833Y-11484000D01*
X14909881Y-11474476D01*
X15062262Y-11674476D02*
X15062262Y-11541143D01*
X15062262Y-11560190D02*
X15071786Y-11550667D01*
X15090833Y-11541143D01*
X15119405Y-11541143D01*
X15138452Y-11550667D01*
X15147976Y-11569714D01*
X15147976Y-11674476D01*
X15147976Y-11569714D02*
X15157500Y-11550667D01*
X15176548Y-11541143D01*
X15205119Y-11541143D01*
X15224167Y-11550667D01*
X15233690Y-11569714D01*
X15233690Y-11674476D01*
X15328928Y-11674476D02*
X15328928Y-11541143D01*
X15328928Y-11560190D02*
X15338452Y-11550667D01*
X15357500Y-11541143D01*
X15386071Y-11541143D01*
X15405119Y-11550667D01*
X15414643Y-11569714D01*
X15414643Y-11674476D01*
X15414643Y-11569714D02*
X15424167Y-11550667D01*
X15443214Y-11541143D01*
X15471786Y-11541143D01*
X15490833Y-11550667D01*
X15500357Y-11569714D01*
X15500357Y-11674476D01*
X15890833Y-11464952D02*
X15719405Y-11722095D01*
X16147976Y-11474476D02*
X16167024Y-11474476D01*
X16186071Y-11484000D01*
X16195595Y-11493524D01*
X16205119Y-11512571D01*
X16214643Y-11550667D01*
X16214643Y-11598286D01*
X16205119Y-11636381D01*
X16195595Y-11655428D01*
X16186071Y-11664952D01*
X16167024Y-11674476D01*
X16147976Y-11674476D01*
X16128928Y-11664952D01*
X16119405Y-11655428D01*
X16109881Y-11636381D01*
X16100357Y-11598286D01*
X16100357Y-11550667D01*
X16109881Y-11512571D01*
X16119405Y-11493524D01*
X16128928Y-11484000D01*
X16147976Y-11474476D01*
X16300357Y-11655428D02*
X16309881Y-11664952D01*
X16300357Y-11674476D01*
X16290833Y-11664952D01*
X16300357Y-11655428D01*
X16300357Y-11674476D01*
X16433690Y-11474476D02*
X16452738Y-11474476D01*
X16471786Y-11484000D01*
X16481309Y-11493524D01*
X16490833Y-11512571D01*
X16500357Y-11550667D01*
X16500357Y-11598286D01*
X16490833Y-11636381D01*
X16481309Y-11655428D01*
X16471786Y-11664952D01*
X16452738Y-11674476D01*
X16433690Y-11674476D01*
X16414643Y-11664952D01*
X16405119Y-11655428D01*
X16395595Y-11636381D01*
X16386071Y-11598286D01*
X16386071Y-11550667D01*
X16395595Y-11512571D01*
X16405119Y-11493524D01*
X16414643Y-11484000D01*
X16433690Y-11474476D01*
X16567024Y-11474476D02*
X16690833Y-11474476D01*
X16624167Y-11550667D01*
X16652738Y-11550667D01*
X16671786Y-11560190D01*
X16681309Y-11569714D01*
X16690833Y-11588762D01*
X16690833Y-11636381D01*
X16681309Y-11655428D01*
X16671786Y-11664952D01*
X16652738Y-11674476D01*
X16595595Y-11674476D01*
X16576548Y-11664952D01*
X16567024Y-11655428D01*
X16786071Y-11674476D02*
X16824167Y-11674476D01*
X16843214Y-11664952D01*
X16852738Y-11655428D01*
X16871786Y-11626857D01*
X16881310Y-11588762D01*
X16881310Y-11512571D01*
X16871786Y-11493524D01*
X16862262Y-11484000D01*
X16843214Y-11474476D01*
X16805119Y-11474476D01*
X16786071Y-11484000D01*
X16776548Y-11493524D01*
X16767024Y-11512571D01*
X16767024Y-11560190D01*
X16776548Y-11579238D01*
X16786071Y-11588762D01*
X16805119Y-11598286D01*
X16843214Y-11598286D01*
X16862262Y-11588762D01*
X16871786Y-11579238D01*
X16881310Y-11560190D01*
X17052738Y-11541143D02*
X17052738Y-11674476D01*
X17005119Y-11464952D02*
X16957500Y-11607809D01*
X17081310Y-11607809D01*
X17147976Y-11474476D02*
X17147976Y-11512571D01*
X17224167Y-11474476D02*
X17224167Y-11512571D01*
X17519405Y-11750667D02*
X17509881Y-11741143D01*
X17490833Y-11712571D01*
X17481310Y-11693524D01*
X17471786Y-11664952D01*
X17462262Y-11617333D01*
X17462262Y-11579238D01*
X17471786Y-11531619D01*
X17481310Y-11503048D01*
X17490833Y-11484000D01*
X17509881Y-11455428D01*
X17519405Y-11445905D01*
X17700357Y-11674476D02*
X17586071Y-11674476D01*
X17643214Y-11674476D02*
X17643214Y-11474476D01*
X17624167Y-11503048D01*
X17605119Y-11522095D01*
X17586071Y-11531619D01*
X17776548Y-11493524D02*
X17786071Y-11484000D01*
X17805119Y-11474476D01*
X17852738Y-11474476D01*
X17871786Y-11484000D01*
X17881310Y-11493524D01*
X17890833Y-11512571D01*
X17890833Y-11531619D01*
X17881310Y-11560190D01*
X17767024Y-11674476D01*
X17890833Y-11674476D01*
X18128929Y-11674476D02*
X18128929Y-11474476D01*
X18214643Y-11674476D02*
X18214643Y-11569714D01*
X18205119Y-11550667D01*
X18186071Y-11541143D01*
X18157500Y-11541143D01*
X18138452Y-11550667D01*
X18128929Y-11560190D01*
X18338452Y-11674476D02*
X18319405Y-11664952D01*
X18309881Y-11655428D01*
X18300357Y-11636381D01*
X18300357Y-11579238D01*
X18309881Y-11560190D01*
X18319405Y-11550667D01*
X18338452Y-11541143D01*
X18367024Y-11541143D01*
X18386071Y-11550667D01*
X18395595Y-11560190D01*
X18405119Y-11579238D01*
X18405119Y-11636381D01*
X18395595Y-11655428D01*
X18386071Y-11664952D01*
X18367024Y-11674476D01*
X18338452Y-11674476D01*
X18519405Y-11674476D02*
X18500357Y-11664952D01*
X18490833Y-11645905D01*
X18490833Y-11474476D01*
X18671786Y-11664952D02*
X18652738Y-11674476D01*
X18614643Y-11674476D01*
X18595595Y-11664952D01*
X18586071Y-11645905D01*
X18586071Y-11569714D01*
X18595595Y-11550667D01*
X18614643Y-11541143D01*
X18652738Y-11541143D01*
X18671786Y-11550667D01*
X18681310Y-11569714D01*
X18681310Y-11588762D01*
X18586071Y-11607809D01*
X18757500Y-11664952D02*
X18776548Y-11674476D01*
X18814643Y-11674476D01*
X18833690Y-11664952D01*
X18843214Y-11645905D01*
X18843214Y-11636381D01*
X18833690Y-11617333D01*
X18814643Y-11607809D01*
X18786071Y-11607809D01*
X18767024Y-11598286D01*
X18757500Y-11579238D01*
X18757500Y-11569714D01*
X18767024Y-11550667D01*
X18786071Y-11541143D01*
X18814643Y-11541143D01*
X18833690Y-11550667D01*
X18909881Y-11750667D02*
X18919405Y-11741143D01*
X18938452Y-11712571D01*
X18947976Y-11693524D01*
X18957500Y-11664952D01*
X18967024Y-11617333D01*
X18967024Y-11579238D01*
X18957500Y-11531619D01*
X18947976Y-11503048D01*
X18938452Y-11484000D01*
X18919405Y-11455428D01*
X18909881Y-11445905D01*
M02*
