G04 #@! TF.GenerationSoftware,KiCad,Pcbnew,6.0.1*
G04 #@! TF.CreationDate,2022-02-12T22:05:26-08:00*
G04 #@! TF.ProjectId,PMOD-PSRAM,504d4f44-2d50-4535-9241-4d2e6b696361,rev?*
G04 #@! TF.SameCoordinates,Original*
G04 #@! TF.FileFunction,Legend,Bot*
G04 #@! TF.FilePolarity,Positive*
%FSLAX46Y46*%
G04 Gerber Fmt 4.6, Leading zero omitted, Abs format (unit mm)*
G04 Created by KiCad (PCBNEW 6.0.1) date 2022-02-12 22:05:26*
%MOMM*%
%LPD*%
G01*
G04 APERTURE LIST*
%ADD10C,0.085000*%
%ADD11C,0.120000*%
%ADD12R,1.700000X1.700000*%
%ADD13O,1.700000X1.700000*%
G04 APERTURE END LIST*
D10*
X149214880Y-90483333D02*
X148739880Y-90483333D01*
X149214880Y-90686904D02*
X148966071Y-90686904D01*
X148920833Y-90664285D01*
X148898214Y-90619047D01*
X148898214Y-90551190D01*
X148920833Y-90505952D01*
X148943452Y-90483333D01*
X148898214Y-90845238D02*
X148898214Y-91026190D01*
X148739880Y-90913095D02*
X149147023Y-90913095D01*
X149192261Y-90935714D01*
X149214880Y-90980952D01*
X149214880Y-91026190D01*
X148898214Y-91116666D02*
X148898214Y-91297619D01*
X148739880Y-91184523D02*
X149147023Y-91184523D01*
X149192261Y-91207142D01*
X149214880Y-91252380D01*
X149214880Y-91297619D01*
X148898214Y-91455952D02*
X149373214Y-91455952D01*
X148920833Y-91455952D02*
X148898214Y-91501190D01*
X148898214Y-91591666D01*
X148920833Y-91636904D01*
X148943452Y-91659523D01*
X148988690Y-91682142D01*
X149124404Y-91682142D01*
X149169642Y-91659523D01*
X149192261Y-91636904D01*
X149214880Y-91591666D01*
X149214880Y-91501190D01*
X149192261Y-91455952D01*
X149192261Y-91863095D02*
X149214880Y-91908333D01*
X149214880Y-91998809D01*
X149192261Y-92044047D01*
X149147023Y-92066666D01*
X149124404Y-92066666D01*
X149079166Y-92044047D01*
X149056547Y-91998809D01*
X149056547Y-91930952D01*
X149033928Y-91885714D01*
X148988690Y-91863095D01*
X148966071Y-91863095D01*
X148920833Y-91885714D01*
X148898214Y-91930952D01*
X148898214Y-91998809D01*
X148920833Y-92044047D01*
X149169642Y-92270238D02*
X149192261Y-92292857D01*
X149214880Y-92270238D01*
X149192261Y-92247619D01*
X149169642Y-92270238D01*
X149214880Y-92270238D01*
X148920833Y-92270238D02*
X148943452Y-92292857D01*
X148966071Y-92270238D01*
X148943452Y-92247619D01*
X148920833Y-92270238D01*
X148966071Y-92270238D01*
X148717261Y-92835714D02*
X149327976Y-92428571D01*
X148717261Y-93333333D02*
X149327976Y-92926190D01*
X148898214Y-93491666D02*
X149214880Y-93491666D01*
X148943452Y-93491666D02*
X148920833Y-93514285D01*
X148898214Y-93559523D01*
X148898214Y-93627380D01*
X148920833Y-93672619D01*
X148966071Y-93695238D01*
X149214880Y-93695238D01*
X149214880Y-93921428D02*
X148898214Y-93921428D01*
X148988690Y-93921428D02*
X148943452Y-93944047D01*
X148920833Y-93966666D01*
X148898214Y-94011904D01*
X148898214Y-94057142D01*
X149214880Y-94283333D02*
X149192261Y-94238095D01*
X149147023Y-94215476D01*
X148739880Y-94215476D01*
X149192261Y-94645238D02*
X149214880Y-94600000D01*
X149214880Y-94509523D01*
X149192261Y-94464285D01*
X149147023Y-94441666D01*
X148966071Y-94441666D01*
X148920833Y-94464285D01*
X148898214Y-94509523D01*
X148898214Y-94600000D01*
X148920833Y-94645238D01*
X148966071Y-94667857D01*
X149011309Y-94667857D01*
X149056547Y-94441666D01*
X148898214Y-94826190D02*
X149214880Y-94916666D01*
X148988690Y-95007142D01*
X149214880Y-95097619D01*
X148898214Y-95188095D01*
X149214880Y-95369047D02*
X148898214Y-95369047D01*
X148739880Y-95369047D02*
X148762500Y-95346428D01*
X148785119Y-95369047D01*
X148762500Y-95391666D01*
X148739880Y-95369047D01*
X148785119Y-95369047D01*
X149192261Y-95572619D02*
X149214880Y-95617857D01*
X149214880Y-95708333D01*
X149192261Y-95753571D01*
X149147023Y-95776190D01*
X149124404Y-95776190D01*
X149079166Y-95753571D01*
X149056547Y-95708333D01*
X149056547Y-95640476D01*
X149033928Y-95595238D01*
X148988690Y-95572619D01*
X148966071Y-95572619D01*
X148920833Y-95595238D01*
X148898214Y-95640476D01*
X148898214Y-95708333D01*
X148920833Y-95753571D01*
X149169642Y-95979761D02*
X149192261Y-96002380D01*
X149214880Y-95979761D01*
X149192261Y-95957142D01*
X149169642Y-95979761D01*
X149214880Y-95979761D01*
X149214880Y-96409523D02*
X148739880Y-96409523D01*
X149192261Y-96409523D02*
X149214880Y-96364285D01*
X149214880Y-96273809D01*
X149192261Y-96228571D01*
X149169642Y-96205952D01*
X149124404Y-96183333D01*
X148988690Y-96183333D01*
X148943452Y-96205952D01*
X148920833Y-96228571D01*
X148898214Y-96273809D01*
X148898214Y-96364285D01*
X148920833Y-96409523D01*
X149192261Y-96816666D02*
X149214880Y-96771428D01*
X149214880Y-96680952D01*
X149192261Y-96635714D01*
X149147023Y-96613095D01*
X148966071Y-96613095D01*
X148920833Y-96635714D01*
X148898214Y-96680952D01*
X148898214Y-96771428D01*
X148920833Y-96816666D01*
X148966071Y-96839285D01*
X149011309Y-96839285D01*
X149056547Y-96613095D01*
X148898214Y-96997619D02*
X149214880Y-97110714D01*
X148898214Y-97223809D01*
X148717261Y-97744047D02*
X149327976Y-97336904D01*
X149214880Y-97902380D02*
X148739880Y-97902380D01*
X149214880Y-98105952D02*
X148966071Y-98105952D01*
X148920833Y-98083333D01*
X148898214Y-98038095D01*
X148898214Y-97970238D01*
X148920833Y-97925000D01*
X148943452Y-97902380D01*
X149214880Y-98535714D02*
X148966071Y-98535714D01*
X148920833Y-98513095D01*
X148898214Y-98467857D01*
X148898214Y-98377380D01*
X148920833Y-98332142D01*
X149192261Y-98535714D02*
X149214880Y-98490476D01*
X149214880Y-98377380D01*
X149192261Y-98332142D01*
X149147023Y-98309523D01*
X149101785Y-98309523D01*
X149056547Y-98332142D01*
X149033928Y-98377380D01*
X149033928Y-98490476D01*
X149011309Y-98535714D01*
X149214880Y-98761904D02*
X148898214Y-98761904D01*
X148988690Y-98761904D02*
X148943452Y-98784523D01*
X148920833Y-98807142D01*
X148898214Y-98852380D01*
X148898214Y-98897619D01*
X149214880Y-99259523D02*
X148739880Y-99259523D01*
X149192261Y-99259523D02*
X149214880Y-99214285D01*
X149214880Y-99123809D01*
X149192261Y-99078571D01*
X149169642Y-99055952D01*
X149124404Y-99033333D01*
X148988690Y-99033333D01*
X148943452Y-99055952D01*
X148920833Y-99078571D01*
X148898214Y-99123809D01*
X148898214Y-99214285D01*
X148920833Y-99259523D01*
X148898214Y-99440476D02*
X149214880Y-99530952D01*
X148988690Y-99621428D01*
X149214880Y-99711904D01*
X148898214Y-99802380D01*
X149214880Y-100186904D02*
X148966071Y-100186904D01*
X148920833Y-100164285D01*
X148898214Y-100119047D01*
X148898214Y-100028571D01*
X148920833Y-99983333D01*
X149192261Y-100186904D02*
X149214880Y-100141666D01*
X149214880Y-100028571D01*
X149192261Y-99983333D01*
X149147023Y-99960714D01*
X149101785Y-99960714D01*
X149056547Y-99983333D01*
X149033928Y-100028571D01*
X149033928Y-100141666D01*
X149011309Y-100186904D01*
X149214880Y-100413095D02*
X148898214Y-100413095D01*
X148988690Y-100413095D02*
X148943452Y-100435714D01*
X148920833Y-100458333D01*
X148898214Y-100503571D01*
X148898214Y-100548809D01*
X149192261Y-100888095D02*
X149214880Y-100842857D01*
X149214880Y-100752380D01*
X149192261Y-100707142D01*
X149147023Y-100684523D01*
X148966071Y-100684523D01*
X148920833Y-100707142D01*
X148898214Y-100752380D01*
X148898214Y-100842857D01*
X148920833Y-100888095D01*
X148966071Y-100910714D01*
X149011309Y-100910714D01*
X149056547Y-100684523D01*
X148717261Y-101453571D02*
X149327976Y-101046428D01*
X149214880Y-101611904D02*
X148739880Y-101611904D01*
X148739880Y-101792857D01*
X148762500Y-101838095D01*
X148785119Y-101860714D01*
X148830357Y-101883333D01*
X148898214Y-101883333D01*
X148943452Y-101860714D01*
X148966071Y-101838095D01*
X148988690Y-101792857D01*
X148988690Y-101611904D01*
X149214880Y-102086904D02*
X148739880Y-102086904D01*
X149079166Y-102245238D01*
X148739880Y-102403571D01*
X149214880Y-102403571D01*
X148739880Y-102720238D02*
X148739880Y-102810714D01*
X148762500Y-102855952D01*
X148807738Y-102901190D01*
X148898214Y-102923809D01*
X149056547Y-102923809D01*
X149147023Y-102901190D01*
X149192261Y-102855952D01*
X149214880Y-102810714D01*
X149214880Y-102720238D01*
X149192261Y-102675000D01*
X149147023Y-102629761D01*
X149056547Y-102607142D01*
X148898214Y-102607142D01*
X148807738Y-102629761D01*
X148762500Y-102675000D01*
X148739880Y-102720238D01*
X149214880Y-103127380D02*
X148739880Y-103127380D01*
X148739880Y-103240476D01*
X148762500Y-103308333D01*
X148807738Y-103353571D01*
X148852976Y-103376190D01*
X148943452Y-103398809D01*
X149011309Y-103398809D01*
X149101785Y-103376190D01*
X149147023Y-103353571D01*
X149192261Y-103308333D01*
X149214880Y-103240476D01*
X149214880Y-103127380D01*
X149033928Y-103602380D02*
X149033928Y-103964285D01*
X149214880Y-104190476D02*
X148739880Y-104190476D01*
X148739880Y-104371428D01*
X148762500Y-104416666D01*
X148785119Y-104439285D01*
X148830357Y-104461904D01*
X148898214Y-104461904D01*
X148943452Y-104439285D01*
X148966071Y-104416666D01*
X148988690Y-104371428D01*
X148988690Y-104190476D01*
X149192261Y-104642857D02*
X149214880Y-104710714D01*
X149214880Y-104823809D01*
X149192261Y-104869047D01*
X149169642Y-104891666D01*
X149124404Y-104914285D01*
X149079166Y-104914285D01*
X149033928Y-104891666D01*
X149011309Y-104869047D01*
X148988690Y-104823809D01*
X148966071Y-104733333D01*
X148943452Y-104688095D01*
X148920833Y-104665476D01*
X148875595Y-104642857D01*
X148830357Y-104642857D01*
X148785119Y-104665476D01*
X148762500Y-104688095D01*
X148739880Y-104733333D01*
X148739880Y-104846428D01*
X148762500Y-104914285D01*
X149214880Y-105389285D02*
X148988690Y-105230952D01*
X149214880Y-105117857D02*
X148739880Y-105117857D01*
X148739880Y-105298809D01*
X148762500Y-105344047D01*
X148785119Y-105366666D01*
X148830357Y-105389285D01*
X148898214Y-105389285D01*
X148943452Y-105366666D01*
X148966071Y-105344047D01*
X148988690Y-105298809D01*
X148988690Y-105117857D01*
X149079166Y-105570238D02*
X149079166Y-105796428D01*
X149214880Y-105525000D02*
X148739880Y-105683333D01*
X149214880Y-105841666D01*
X149214880Y-106000000D02*
X148739880Y-106000000D01*
X149079166Y-106158333D01*
X148739880Y-106316666D01*
X149214880Y-106316666D01*
D11*
X145380000Y-93320000D02*
X142780000Y-93320000D01*
X145380000Y-90720000D02*
X144050000Y-90720000D01*
X142780000Y-93320000D02*
X142780000Y-90720000D01*
X145380000Y-106080000D02*
X140180000Y-106080000D01*
X145380000Y-93320000D02*
X145380000Y-106080000D01*
X140180000Y-90720000D02*
X140180000Y-106080000D01*
X145380000Y-92050000D02*
X145380000Y-90720000D01*
X142780000Y-90720000D02*
X140180000Y-90720000D01*
%LPC*%
D12*
X144050000Y-92050000D03*
D13*
X141510000Y-92050000D03*
X144050000Y-94590000D03*
X141510000Y-94590000D03*
X144050000Y-97130000D03*
X141510000Y-97130000D03*
X144050000Y-99670000D03*
X141510000Y-99670000D03*
X144050000Y-102210000D03*
X141510000Y-102210000D03*
X144050000Y-104750000D03*
X141510000Y-104750000D03*
M02*
