G04 #@! TF.GenerationSoftware,KiCad,Pcbnew,6.0.1*
G04 #@! TF.CreationDate,2022-02-12T22:05:26-08:00*
G04 #@! TF.ProjectId,PMOD-PSRAM,504d4f44-2d50-4535-9241-4d2e6b696361,rev?*
G04 #@! TF.SameCoordinates,Original*
G04 #@! TF.FileFunction,Copper,L1,Top*
G04 #@! TF.FilePolarity,Positive*
%FSLAX46Y46*%
G04 Gerber Fmt 4.6, Leading zero omitted, Abs format (unit mm)*
G04 Created by KiCad (PCBNEW 6.0.1) date 2022-02-12 22:05:26*
%MOMM*%
%LPD*%
G01*
G04 APERTURE LIST*
G04 Aperture macros list*
%AMRoundRect*
0 Rectangle with rounded corners*
0 $1 Rounding radius*
0 $2 $3 $4 $5 $6 $7 $8 $9 X,Y pos of 4 corners*
0 Add a 4 corners polygon primitive as box body*
4,1,4,$2,$3,$4,$5,$6,$7,$8,$9,$2,$3,0*
0 Add four circle primitives for the rounded corners*
1,1,$1+$1,$2,$3*
1,1,$1+$1,$4,$5*
1,1,$1+$1,$6,$7*
1,1,$1+$1,$8,$9*
0 Add four rect primitives between the rounded corners*
20,1,$1+$1,$2,$3,$4,$5,0*
20,1,$1+$1,$4,$5,$6,$7,0*
20,1,$1+$1,$6,$7,$8,$9,0*
20,1,$1+$1,$8,$9,$2,$3,0*%
G04 Aperture macros list end*
G04 #@! TA.AperFunction,SMDPad,CuDef*
%ADD10RoundRect,0.237500X-0.237500X0.300000X-0.237500X-0.300000X0.237500X-0.300000X0.237500X0.300000X0*%
G04 #@! TD*
G04 #@! TA.AperFunction,SMDPad,CuDef*
%ADD11RoundRect,0.150000X-0.825000X-0.150000X0.825000X-0.150000X0.825000X0.150000X-0.825000X0.150000X0*%
G04 #@! TD*
G04 #@! TA.AperFunction,ComponentPad*
%ADD12R,1.700000X1.700000*%
G04 #@! TD*
G04 #@! TA.AperFunction,ComponentPad*
%ADD13O,1.700000X1.700000*%
G04 #@! TD*
G04 #@! TA.AperFunction,ViaPad*
%ADD14C,0.600000*%
G04 #@! TD*
G04 #@! TA.AperFunction,Conductor*
%ADD15C,0.250000*%
G04 #@! TD*
G04 APERTURE END LIST*
D10*
X156812500Y-100925000D03*
X156812500Y-102650000D03*
D11*
X149200000Y-92045000D03*
X149200000Y-93315000D03*
X149200000Y-94585000D03*
X149200000Y-95855000D03*
X154150000Y-95855000D03*
X154150000Y-94585000D03*
X154150000Y-93315000D03*
X154150000Y-92045000D03*
X149200000Y-100945000D03*
X149200000Y-102215000D03*
X149200000Y-103485000D03*
X149200000Y-104755000D03*
X154150000Y-104755000D03*
X154150000Y-103485000D03*
X154150000Y-102215000D03*
X154150000Y-100945000D03*
D10*
X156825000Y-92025000D03*
X156825000Y-93750000D03*
D12*
X144050000Y-92050000D03*
D13*
X141510000Y-92050000D03*
X144050000Y-94590000D03*
X141510000Y-94590000D03*
X144050000Y-97130000D03*
X141510000Y-97130000D03*
X144050000Y-99670000D03*
X141510000Y-99670000D03*
X144050000Y-102210000D03*
X141510000Y-102210000D03*
X144050000Y-104750000D03*
X141510000Y-104750000D03*
D14*
X155730000Y-100945000D03*
X155730000Y-92045000D03*
X156825000Y-94950000D03*
X156825000Y-103860000D03*
X150675000Y-104750000D03*
X150673500Y-95850000D03*
X147025000Y-93300000D03*
X146975000Y-102200000D03*
X152675000Y-104760000D03*
X152675000Y-98400000D03*
X152675000Y-95850000D03*
X147625000Y-94600000D03*
X147625000Y-103500000D03*
X151975000Y-99700000D03*
X151975000Y-103450000D03*
X151975000Y-94600000D03*
X151225000Y-97100000D03*
X151225000Y-102210000D03*
X151225000Y-93300000D03*
D15*
X154150000Y-92045000D02*
X155730000Y-92045000D01*
X155730000Y-100945000D02*
X155740000Y-100945000D01*
X156805000Y-92045000D02*
X156825000Y-92025000D01*
X155730000Y-92045000D02*
X156805000Y-92045000D01*
X156792500Y-100945000D02*
X156812500Y-100925000D01*
X154150000Y-100945000D02*
X155730000Y-100945000D01*
X155740000Y-100945000D02*
X156792500Y-100945000D01*
X149200000Y-104755000D02*
X150670000Y-104755000D01*
X156825000Y-93750000D02*
X156825000Y-94950000D01*
X150670000Y-104755000D02*
X150675000Y-104750000D01*
X150668500Y-95855000D02*
X150673500Y-95850000D01*
X156812500Y-102650000D02*
X156812500Y-103847500D01*
X149200000Y-95855000D02*
X150668500Y-95855000D01*
X156812500Y-103847500D02*
X156825000Y-103860000D01*
X149195000Y-92050000D02*
X149200000Y-92045000D01*
X144050000Y-92050000D02*
X149195000Y-92050000D01*
X146990000Y-102215000D02*
X146975000Y-102200000D01*
X149200000Y-102215000D02*
X146990000Y-102215000D01*
X149185000Y-93300000D02*
X149200000Y-93315000D01*
X141510000Y-92050000D02*
X142760000Y-93300000D01*
X147025000Y-93300000D02*
X149185000Y-93300000D01*
X142760000Y-93300000D02*
X147025000Y-93300000D01*
X152680000Y-104755000D02*
X152675000Y-104760000D01*
X154145000Y-95850000D02*
X154150000Y-95855000D01*
X152675000Y-95850000D02*
X154145000Y-95850000D01*
X142780000Y-98400000D02*
X152675000Y-98400000D01*
X141510000Y-97130000D02*
X142780000Y-98400000D01*
X154150000Y-104755000D02*
X152680000Y-104755000D01*
X149200000Y-103485000D02*
X147640000Y-103485000D01*
X147640000Y-103485000D02*
X147625000Y-103500000D01*
X147615000Y-94590000D02*
X147625000Y-94600000D01*
X144050000Y-94590000D02*
X147615000Y-94590000D01*
X149185000Y-94600000D02*
X149200000Y-94585000D01*
X147625000Y-94600000D02*
X149185000Y-94600000D01*
X154135000Y-94600000D02*
X154150000Y-94585000D01*
X144050000Y-99670000D02*
X151945000Y-99670000D01*
X151945000Y-99670000D02*
X151975000Y-99700000D01*
X151975000Y-94600000D02*
X154135000Y-94600000D01*
X154125000Y-103460000D02*
X154150000Y-103485000D01*
X151975000Y-103460000D02*
X154125000Y-103460000D01*
X154150000Y-102215000D02*
X151580000Y-102215000D01*
X141510000Y-94590000D02*
X142770000Y-95850000D01*
X142770000Y-95850000D02*
X146425000Y-95850000D01*
X154135000Y-93300000D02*
X151225000Y-93300000D01*
X151575000Y-102210000D02*
X151225000Y-102210000D01*
X147675000Y-97100000D02*
X151225000Y-97100000D01*
X154150000Y-93315000D02*
X154135000Y-93300000D01*
X146425000Y-95850000D02*
X147675000Y-97100000D01*
X151580000Y-102215000D02*
X151575000Y-102210000D01*
X142790000Y-100950000D02*
X147065000Y-100950000D01*
X147075000Y-100960000D02*
X149185000Y-100960000D01*
X141510000Y-99670000D02*
X142790000Y-100950000D01*
X147065000Y-100950000D02*
X147075000Y-100960000D01*
X149185000Y-100960000D02*
X149200000Y-100945000D01*
M02*
